<?xml version="1.0" encoding="utf-8"?>
<!-- Generator: Adobe Illustrator 26.0.2, SVG Export Plug-In . SVG Version: 6.00 Build 0)  -->
<svg version="1.1" id="Layer_1" xmlns="http://www.w3.org/2000/svg" xmlns:xlink="http://www.w3.org/1999/xlink" width="200.9px" height="90.6px"
	 viewBox="0 0 200.9 90.6" style="enable-background:new 0 0 200.9 90.6;" xml:space="preserve">
<style type="text/css">
	.st0{fill:#FFFFFF;}
</style>
<g id="Group_3695">
	<path id="Path_281" class="st0" d="M34.5,12.9C15.5,13,0.2,28.4,0.3,47.4c0.1,18.8,15.4,34,34.2,34.1h10.3v-0.9H34.5
		C16,80.5,1.1,65.5,1.2,47c0.1-18.3,15-33.1,33.3-33.2h45.1v-0.9L34.5,12.9z"/>
	<path id="Path_282" class="st0" d="M166.4,12.9h-47.5v0.9h47.5c18.5,0.1,33.4,15.1,33.3,33.6c-0.1,18.3-15,33.1-33.3,33.2h-12.7
		v0.9h12.7c19-0.1,34.3-15.5,34.2-34.5C200.5,28.2,185.3,13,166.4,12.9"/>
	<path id="Path_283" class="st0" d="M109.3,15.3c0,0,0.1,0,0.1,0c0.2-0.1,0.3-0.3,0.4-0.4C109.6,14.9,109.5,15.1,109.3,15.3
		C109.3,15.3,109.3,15.3,109.3,15.3 M92.1,16.2c0.3,0,0.7-0.2,0.9-0.5C92.7,15.8,92.4,16,92.1,16.2L92.1,16.2z M108.2,11.3
		c-0.1-0.4-0.3-0.9-0.6-1.2C107.6,10.5,107.8,10.9,108.2,11.3z M110.7,12.5c0-0.2-0.1-0.3-0.2-0.5c-0.2-0.3-0.3-0.7-0.5-1.1
		c-0.2-0.4-0.4-0.7-0.6-1c0,0.1,0,0.3,0.1,0.4C109.8,11.1,110.2,11.8,110.7,12.5 M88,14.5c-1.1-0.1-2.1,0.1-3.1,0.6
		c0.6-0.2,1.2-0.3,1.8-0.3c0.3,0,0.6,0,0.9-0.1C87.7,14.7,87.9,14.6,88,14.5 M100.1,16.5c-0.2,0-0.3,0.1-0.5,0.2
		c-0.4,0.3-0.8,0.6-1.1,1c-0.1,0.1-0.2,0.2-0.3,0.3c-0.3,0.2-0.6,0.5-0.8,0.8c0,0,0,0.1,0,0.1c0,0,0.1,0,0.1,0
		c0.3-0.2,0.5-0.3,0.7-0.6c0.3-0.3,0.6-0.6,0.9-0.9c0.2-0.3,0.5-0.5,0.8-0.6C99.9,16.6,100,16.6,100.1,16.5 M88.5,19.4
		c0.1,0,0.2,0,0.3-0.1c0.5-0.4,0.9-0.8,1.3-1.3c0.2-0.2,0.3-0.4,0.5-0.6c0,0,0-0.1,0-0.1c0,0,0,0-0.1,0c-0.2,0.2-0.4,0.4-0.7,0.6
		C89.3,18.4,88.9,18.9,88.5,19.4 M98.8,18.9c0.1,0,0.2,0,0.2,0c0.3-0.2,0.6-0.3,0.9-0.5c0.5-0.5,1-1.1,1.3-1.7c0,0,0,0,0,0
		c0,0,0,0-0.1,0c-0.2,0.1-0.3,0.3-0.4,0.5c-0.3,0.5-0.7,0.9-1.1,1.2C99.3,18.4,99.1,18.6,98.8,18.9 M99.7,11.4
		C99.7,11.4,99.6,11.4,99.7,11.4C99.6,11.4,99.6,11.5,99.7,11.4c0.1,0.2,0.2,0.3,0.3,0.5c0.4,0.5,0.9,1,1.4,1.4
		c0.3,0.2,0.7,0.4,1.1,0.6c0,0,0.1,0,0.1,0c0,0,0-0.1-0.1-0.1c-0.7-0.4-1.4-0.9-1.9-1.4c-0.2-0.2-0.4-0.4-0.6-0.6
		C99.9,11.6,99.8,11.5,99.7,11.4 M90.6,19c0.1,0,0.1,0,0.2-0.1c0.4-0.2,0.8-0.6,1-1c0.1-0.2,0.2-0.3,0.3-0.4
		c0.1-0.2,0.2-0.3,0.2-0.5c0.1-0.1,0.2-0.3,0.2-0.4c0,0,0,0,0-0.1c0,0-0.1,0-0.1,0c-0.4,0.4-0.7,0.8-1,1.2
		C91.2,18.2,90.9,18.6,90.6,19 M87.7,14.9c-1,0-1.9,0.2-2.9,0.4c-0.1,0-0.1,0-0.2,0c-0.2,0-0.4,0.1-0.6,0.1c0,0,0,0,0,0.1
		c0,0,0,0,0,0c0.2,0.1,0.5,0.1,0.8,0.1c1,0.1,1.9-0.1,2.8-0.4c0.4-0.2,0.8-0.3,1.2-0.6c-0.3,0.1-0.6,0.1-0.9,0.2
		c-0.7,0.3-1.4,0.3-2,0.6c0,0,0,0-0.1,0c0,0,0,0,0,0c0,0,0,0,0,0c0.4-0.2,0.8-0.3,1.2-0.3C87.2,15.1,87.4,15,87.7,14.9 M89,19.7
		c0.2-0.1,0.5-0.2,0.7-0.3c0.5-0.4,1-0.8,1.3-1.4c0,0,0-0.1,0-0.1c0,0-0.1,0-0.1,0c-0.1,0-0.1,0-0.2,0.1c0,0-0.1,0-0.1,0
		c0,0,0-0.1,0-0.1c0.4-0.4,0.8-0.7,1.2-1.1c0.1-0.1,0.1-0.2,0.2-0.2c-0.1-0.1-0.2,0-0.3,0.1c-0.4,0.1-0.7,0.4-0.9,0.7
		c-0.1,0.2-0.2,0.3-0.3,0.5c-0.4,0.4-0.7,0.8-1.1,1.2c-0.1,0.2-0.3,0.3-0.5,0.4c-0.1,0.1-0.2,0.2-0.3,0.3c0,0,0,0,0,0c0,0,0,0,0,0
		C88.9,19.8,89,19.8,89,19.7 M90.4,13.9l-0.3-1c-0.1-0.3-0.2-0.6-0.2-0.9c0-0.3-0.2-0.5-0.2-0.8c0,0,0-0.1-0.1-0.1
		c-0.4-0.7-1-1.2-1.6-1.5c0,0-0.1,0-0.1,0c-0.1,0,0,0.1,0,0.1c0.2,0.6,0.4,1.2,0.8,1.8c0.2,0.4,0.5,0.8,0.7,1.2
		c0.1,0.2,0.3,0.4,0.4,0.5c0-0.1,0-0.2-0.1-0.3c-0.2-0.3-0.3-0.6-0.4-1c-0.1-0.4-0.2-0.7-0.5-1c-0.1-0.1-0.2-0.2-0.3-0.3
		c0,0,0-0.1,0-0.1c0,0,0.1,0,0.1,0c0.1,0.1,0.3,0.2,0.4,0.3c0.3,0.4,0.5,0.9,0.5,1.3c0,0.1,0,0.2,0.1,0.3c0.2,0.2,0.3,0.5,0.3,0.8
		C90.1,13.6,90.2,13.8,90.4,13.9 M80.6,9.9c0.4,0.3,0.9,0.7,1.3,1.1c0.6,0.6,1.3,1,2.2,1.3c0.5,0.1,1,0.2,1.5,0.3c0,0,0.1,0,0.1,0
		c0,0,0,0,0,0c0,0,0-0.1,0-0.1c-0.1-0.1-0.3-0.1-0.4-0.1c0.2-0.2-0.1-0.3-0.2-0.4c-0.2-0.2-0.5-0.4-0.7-0.6
		c-0.2-0.1-0.4-0.2-0.6-0.4c-0.4-0.3-0.8-0.5-1.2-0.6C81.9,10.1,81.2,10,80.6,9.9 M107.3,8.6C107.3,8.6,107.3,8.7,107.3,8.6
		c0.1,0.3,0.2,0.5,0.3,0.8c0.2,0.6,0.5,1.2,0.8,1.8c0.3,0.7,0.8,1.3,1.4,1.7c0.1,0.1,0.1,0.2,0.3,0.1s0.2,0.1,0.3,0.2
		c0.1,0.1,0.2,0.1,0.3,0.2c0.1,0,0.1,0.1,0.2,0.1c0,0,0.1,0,0.1,0c0,0,0-0.1,0-0.1c-0.1-0.2-0.3-0.4-0.5-0.6c-0.3-0.3-0.5-0.6-0.6-1
		c-0.3-0.6-0.5-1.2-0.8-1.8c-0.3-0.7-0.8-1.2-1.5-1.3C107.5,8.6,107.5,8.6,107.3,8.6C107.4,8.6,107.4,8.6,107.3,8.6L107.3,8.6z
		 M99.7,10.9C99.7,10.9,99.7,10.9,99.7,10.9c0,0.1,0,0.1,0,0.1c0.2,0.2,0.4,0.4,0.5,0.6c0.6,0.7,1.4,1.4,2.2,1.9
		c0.1,0.1,0.3,0.1,0.4,0.2c0.2,0.1,0.4,0.2,0.6,0.2c0,0,0.1,0,0.2,0c0.1-0.2,0.2-0.1,0.3,0c0.2,0.1,0.4,0.2,0.6,0.3c0,0,0.1,0,0.1,0
		c0,0,0-0.1,0-0.1c-0.5-0.4-1-0.9-1.3-1.5c0-0.1-0.1-0.1-0.1-0.2c0,0-0.1-0.1-0.1-0.1c-0.4-0.3-0.7-0.5-1.2-0.7
		c-0.2-0.1-0.3-0.1-0.5-0.2c-0.2-0.1-0.5-0.2-0.7-0.4c-0.3,0.1-0.5,0-0.8-0.1C99.9,10.9,99.8,10.9,99.7,10.9L99.7,10.9z M104.8,12.9
		L104.8,12.9c0.2,0,0.2,0.2,0.3,0.3c0.1,0.1,0.2,0.2,0.3,0.3c-0.1-0.4-0.2-0.7-0.3-1.1c-0.1-0.2-0.1-0.4-0.1-0.6
		c0-0.4,0-0.8-0.1-1.2c-0.1-0.5-0.4-0.9-0.7-1.3c-0.3-0.3-0.6-0.6-1-0.8c0,0-0.1,0-0.1,0c0,0,0,0.1,0,0.1c0.2,0.3,0.4,0.7,0.5,1.1
		c0,0.1,0.1,0.3,0.1,0.4c0,0.2,0,0.5,0,0.7c0,0.6,0.1,1.2,0.3,1.8c0.1,0.3,0.3,0.5,0.5,0.7c0.3,0.3,0.6,0.5,0.9,0.7
		c0.1,0.1,0.2,0.2,0.3,0.1c0-0.2-0.2-0.2-0.2-0.3c-0.1-0.1-0.1-0.1-0.2-0.2C105,13.4,104.9,13.2,104.8,12.9 M110.1,15.2
		C110.1,15.2,110.1,15.2,110.1,15.2c0-0.1,0-0.1,0-0.2c0,0-0.1,0-0.1,0c-0.5,0.4-0.9,0.9-1.3,1.5c-0.2,0.4-0.5,0.7-0.8,1.1
		c-0.2,0.3-0.5,0.6-0.6,1c-0.1,0.2-0.2,0.4-0.3,0.5c0,0,0,0.1,0,0.1c0,0,0.1,0,0.1,0c0.3-0.1,0.6-0.3,0.8-0.4
		c0.1-0.1,0.3-0.2,0.4-0.3c0.4-0.3,0.7-0.7,1-1.1c0.1-0.2,0.3-0.4,0.4-0.6c0.2-0.4,0.3-0.9,0.4-1.4c0,0,0-0.1,0-0.1
		C110.2,15.3,110.2,15.2,110.1,15.2L110.1,15.2z M95.5,14.7L95.5,14.7c0,0,0.1-0.1,0.1-0.1c0-0.1-0.1-0.2-0.1-0.3
		c-0.2-0.3-0.4-0.7-0.4-1.1c0-0.4-0.2-0.8-0.4-1.1c-0.4-0.5-0.8-0.9-1.4-1.2c-0.1,0-0.1-0.1-0.2-0.1c0,0-0.1,0-0.1,0
		c0,0,0,0.1,0,0.1c0.1,0.2,0.3,0.5,0.3,0.7c0.1,0.4,0.3,0.8,0.5,1.2c0.2,0.5,0.5,1,0.9,1.4c0.2,0.2,0.4,0.4,0.7,0.6
		c0.1,0,0.1,0,0.1-0.1C95.5,14.8,95.5,14.8,95.5,14.7 M100,17.1C100,17.1,100,17.1,100,17.1c-0.2,0.3-0.5,0.5-0.7,0.7
		c-0.1,0.1-0.2,0.1-0.4,0.1c-0.1,0-0.3,0-0.4,0.2c-0.1,0.1-0.1,0.1-0.2,0.2c-0.4,0.5-0.9,0.8-1.5,1.1c0,0-0.1,0-0.1,0.1
		c0,0,0,0,0,0.1s0,0,0,0c0.3,0,0.6-0.1,0.9-0.1c0,0,0.1,0,0.1,0c0.2-0.1,0.5-0.3,0.7-0.5c0.1-0.1,0.2-0.2,0.4-0.3
		c0.4-0.2,0.7-0.5,1.1-0.8c0.2-0.2,0.4-0.4,0.5-0.6c0,0,0-0.1,0-0.1c0,0-0.1,0-0.1,0C100.2,17,100.1,17.1,100,17.1
		C100,17.1,100,17,100,17.1c0.2-0.2,0.3-0.3,0.5-0.4c0.1-0.1,0.3-0.1,0.4-0.2c0,0,0-0.1,0-0.1c0,0-0.1,0-0.1,0c-0.1,0-0.1,0-0.2,0.1
		c-0.7,0.3-1.3,0.8-1.7,1.4c0.2-0.1,0.4-0.2,0.6-0.4C99.6,17.3,99.8,17.2,100,17.1 M103.4,14.3c-0.1,0-0.1,0-0.2,0
		c-0.6-0.2-1.2-0.4-1.7-0.8c-0.5-0.3-0.9-0.7-1.3-1.1c-0.1-0.1-0.1-0.1-0.2-0.2c-0.4-0.5-0.8-1-1.3-1.3c-0.2-0.1-0.1-0.3-0.1-0.4
		c0,0,0-0.1,0.1-0.1c0.1,0,0.3-0.1,0.4,0c0.9,0.1,1.7,0.3,2.6,0.5c0.1,0,0.2,0.1,0.4,0.1c0.4,0.2,0.8,0.4,1.2,0.6c0,0,0.1,0,0.1,0
		c0,0,0,0,0-0.1c0-0.1,0-0.3,0-0.4c-0.1-0.4-0.1-0.8-0.2-1.1c-0.1-0.3-0.2-0.6-0.3-1c-0.1-0.3-0.2-0.6-0.4-0.8c0,0,0-0.1,0-0.2
		c0,0,0.1-0.1,0.1-0.1c0.2,0,0.4,0,0.5,0.1c0.7,0.3,1.2,0.8,1.6,1.5c0.4,0.7,0.7,1.5,0.8,2.3c0.1,0.4,0.1,0.8,0.3,1.2
		c0.1,0.4,0.4,0.8,0.7,1.2c0.1,0.1,0.2,0.2,0.3,0.1c0.1,0,0.2,0,0.3,0c0.6-0.2,1.1-0.3,1.7-0.4c0.6-0.1,1.2-0.2,1.8-0.3
		c0,0,0.1,0,0.1,0c0,0,0.1,0,0.1-0.1c0-0.1,0-0.1-0.1-0.1c-0.2-0.1-0.3-0.2-0.5-0.2c-0.3-0.2-0.7-0.4-0.9-0.6
		c-0.3-0.3-0.6-0.6-0.9-0.9c-0.4-0.4-0.7-0.8-0.9-1.3c-0.1-0.2-0.2-0.4-0.2-0.6c-0.1-0.4-0.2-0.9-0.4-1.3c-0.1-0.1-0.1-0.3-0.2-0.4
		c0-0.1,0-0.2,0-0.2c0,0,0,0,0,0c0.1,0,0.2,0,0.3,0c0.5,0.2,0.9,0.4,1.4,0.6c0.4,0.2,0.7,0.6,1,0.9c0.3,0.4,0.6,0.9,0.9,1.4
		c0.2,0.5,0.4,1,0.7,1.4c0.2,0.3,0.6,0.6,0.9,0.9c0.3,0.2,0.6,0.2,0.9,0.2c1.1-0.1,2.3-0.2,3.4-0.2c0.5,0,1.1,0,1.6,0.1
		c0.1,0,0.1,0.1,0.1,0.1c0,0.1-0.1,0.1-0.1,0.1c0,0,0,0-0.1,0c-0.8,0-1.7,0-2.5,0.1c-0.8,0-1.6,0.1-2.5,0.2
		c-0.4,0.1-0.8,0.1-1.2,0.1c-0.2,0-0.5,0.1-0.6,0.3c-0.2,0.3-0.4,0.7-0.5,1.1c0,0.2-0.1,0.3-0.1,0.5c-0.1,0.3-0.2,0.6-0.4,0.9
		c-0.1,0.1-0.1,0.2-0.1,0.3c-0.1,0.4-0.3,0.8-0.5,1.1c0,0.1-0.1,0.2-0.2,0.2c-0.4,0.4-0.8,0.7-1.2,0.9c-0.4,0.2-0.7,0.3-1.1,0.5
		c-0.1,0-0.3,0-0.4,0c-0.2-0.1-0.2-0.2-0.1-0.3c0.2-0.3,0.4-0.6,0.5-0.8c0.5-0.7,0.9-1.4,1.2-2.2c0.2-0.4,0.4-0.7,0.7-1
		c0.3-0.4,0.7-0.7,1.1-1c0.1-0.1,0.2-0.2,0.3-0.3c-0.5,0.1-0.9,0.1-1.4,0.2c-0.4,0.1-0.9,0.2-1.3,0.3c-0.6,0.1-1.1,0.2-1.7,0.3
		c-0.1,0-0.3,0.1-0.4,0.1c-0.2,0.1-0.5,0.1-0.8,0.2c-0.3,0-0.6,0.2-1,0.2c-0.4,0.1-0.7,0.2-1.1,0.2c-0.2,0-0.3,0.1-0.4,0.2
		c-0.4,0.3-0.7,0.7-1,1.1c-0.1,0.1-0.2,0.3-0.2,0.4c-0.3,0.5-0.8,1-1.3,1.3c-0.5,0.4-1.1,0.6-1.7,0.8c-0.7,0.2-1.4,0.3-2.1,0.3
		c-0.1,0-0.1,0-0.1-0.1c0-0.1,0-0.1,0-0.2c0,0,0,0,0,0c0.6-0.4,1.1-0.9,1.6-1.5c0.5-0.4,0.9-0.9,1.4-1.3c0.4-0.3,0.8-0.6,1.3-0.7
		c0.2-0.1,0.3-0.1,0.5-0.2c-0.1,0-0.3,0-0.4,0c-0.6,0.1-1.2,0-1.8,0c-0.8,0-1.7,0-2.5-0.1c-0.5-0.1-1.1-0.1-1.6-0.3
		c-0.2,0-0.4,0-0.5,0c-0.2,0-0.4,0.2-0.5,0.4c-0.1,0.2-0.3,0.4-0.4,0.5c-0.3,0.5-0.5,0.9-0.8,1.4c-0.2,0.4-0.6,0.8-1,1.1
		c-0.7,0.5-1.5,0.9-2.3,1.1c-0.3,0.1-0.6,0.1-0.9,0.2c-0.1,0-0.1,0-0.2,0c-0.1,0-0.2-0.1-0.1-0.2c0,0,0,0,0,0
		c0.1-0.1,0.2-0.2,0.2-0.3c0.3-0.4,0.7-0.7,1-1.1c0.5-0.6,1-1.1,1.7-1.5c0.2-0.2,0.4-0.3,0.7-0.5c0.2-0.1,0.3-0.3,0.5-0.4
		c0.3-0.3,0.7-0.5,1.2-0.6c0,0,0.1,0,0.1-0.1c0,0-0.1-0.1-0.1-0.1c0,0,0,0-0.1,0l-1.9-0.5c-0.1,0-0.2,0-0.3-0.1
		c-0.3-0.1-0.6-0.1-0.9,0c-0.5,0.1-0.9,0.3-1.3,0.6c-0.4,0.1-0.7,0.3-1,0.5c-0.2,0.1-0.3,0.2-0.5,0c0,0-0.1,0-0.2,0
		c-1,0.3-2,0.3-3,0.1c0,0-0.1,0-0.1,0c0,0,0,0.1,0,0.1c0.1,0,0.2,0.1,0.2,0.1c0,0,0.1,0,0.1,0.1c0,0,0,0.1-0.1,0
		c-0.4-0.1-0.8-0.3-1.1-0.6c0,0,0-0.1,0-0.1c0.2-0.1,0.4-0.2,0.6-0.2c0.2,0,0.4-0.1,0.6-0.2c0.5-0.2,1-0.3,1.5-0.5
		c0.4-0.1,0.8-0.2,1.2-0.2c0.7-0.1,1.4-0.1,2.1-0.1c0.1,0,0.2,0,0.3-0.1c0,0,0,0,0,0c0,0,0-0.1,0-0.1c-0.3-0.1-0.6-0.3-1-0.4
		c-0.3-0.1-0.7-0.3-1-0.4c-0.1-0.1-0.3-0.1-0.4-0.2c-0.2-0.1-0.4-0.1-0.6,0c-0.1,0.1-0.2,0.1-0.3,0.1c-0.2,0-0.4,0.1-0.6-0.1
		c0.1,0,0.3-0.1,0.4,0c0.1,0,0.2,0,0.2-0.1c0-0.1-0.1-0.1-0.1-0.1c-0.1,0-0.3,0-0.4-0.1c-0.2,0-0.4,0-0.6-0.1
		c-0.7-0.1-1.3-0.4-1.9-0.8c-0.2-0.2-0.5-0.3-0.7-0.4c0,0-0.1,0-0.2,0c-0.1-0.2-0.3-0.3-0.5-0.5c0,0.1,0,0.2,0,0.2c0,0,0,0,0,0
		c0.1,0.1,0.2,0.3,0.4,0.3c0,0.1,0.1,0.1,0.1,0.2c0,0.1,0.1,0.1,0.1,0.2c-0.1,0-0.1,0-0.2-0.1c-0.4-0.3-0.7-0.6-1-0.9
		c-0.3-0.4-0.7-0.7-1.1-1c-0.1,0-0.1-0.1-0.2-0.2c-0.1-0.1,0-0.1,0-0.1c0.1-0.1,0.2-0.1,0.3-0.1c0.5,0.1,1.1,0.2,1.6,0.3
		c0.4,0.1,0.7,0.2,1.1,0.3c0.4,0.1,0.8,0.3,1.2,0.5c0.8,0.4,1.6,0.9,2.2,1.6c0.6,0.5,1.2,0.9,2,1.2c0.3,0.1,0.7,0.3,1,0.4
		c0.2,0.1,0.5,0.2,0.7,0.2c0,0,0,0,0,0s0,0,0,0c-0.2-0.2-0.4-0.4-0.6-0.6c-0.4-0.4-0.7-0.8-0.9-1.3c-0.1-0.2-0.2-0.3-0.2-0.5
		c-0.2-0.7-0.5-1.4-0.7-2.1c0,0,0-0.1,0-0.1c0-0.1,0-0.1,0.1-0.2c0,0,0,0,0,0c0.2,0,0.4,0,0.6,0c0.2,0,0.4,0.1,0.6,0.3
		c0.1,0.1,0.3,0.2,0.4,0.4c0.3,0.3,0.5,0.7,0.8,1c0.3,0.4,0.5,0.8,0.5,1.3c0,0.6,0.2,1.2,0.5,1.8c0,0.1,0.1,0.2,0.1,0.3
		c0.1,0.2,0.3,0.4,0.5,0.4c0.9,0.3,1.8,0.5,2.8,0.7c0.3,0,0.7,0.1,1,0.2c0,0,0.1,0,0.1,0c0.1-0.1,0-0.1-0.1-0.1
		c-0.6-0.3-1.1-0.8-1.5-1.3c-0.3-0.4-0.6-0.9-0.8-1.5c-0.1-0.3-0.2-0.7-0.3-1c-0.1-0.3-0.2-0.5-0.3-0.8c-0.1-0.1-0.1-0.3-0.2-0.5
		c0-0.1,0-0.2,0.1-0.2c0,0,0.1,0,0.1,0c0.3,0.1,0.6,0.2,0.9,0.4c0.3,0.3,0.6,0.5,0.9,0.7c0.1,0.1,0.2,0.1,0.2,0.2
		c0.2,0.2,0.3,0.4,0.5,0.6c0.2,0.2,0.3,0.4,0.4,0.7c0.1,0.3,0.2,0.5,0.4,0.7c0.1,0.3,0.2,0.5,0.3,0.8c0.2,0.4,0.5,0.8,0.8,1.2
		c0.1,0.1,0.2,0.1,0.3,0.2c0.2,0,0.4,0,0.5,0.1c1.1,0,2.2,0,3.3-0.1c0.7-0.1,1.4-0.2,2.1-0.2c0.1,0,0.2,0,0.3-0.1
		c0.6-0.2,1.1-0.3,1.7-0.4c0.2,0,0.3-0.1,0.5-0.1c0.1-0.1,0.3-0.1,0.4-0.1c0,0,0.1,0,0.1-0.1c0,0-0.1-0.1-0.1-0.1
		c-0.2,0-0.3,0-0.5,0c-0.6,0-1.3,0-1.9-0.1C103.5,14.4,103.5,14.4,103.4,14.3c0.1-0.1,0.2,0,0.2-0.1c-0.2-0.1-0.3-0.1-0.5-0.2
		c-0.1,0-0.2,0-0.1,0c0,0,0,0.1,0.1,0.1C103.2,14.2,103.3,14.2,103.4,14.3"/>
	<path id="Path_284" class="st0" d="M82.2,11.8c0.1,0,0.2,0,0.2,0.1c0.3,0.3,0.6,0.5,1,0.7c0.1,0,0.2,0.1,0.2,0.2
		c-0.3,0-0.5-0.1-0.7-0.3C82.6,12.3,82.3,12.2,82.2,11.8"/>
	<path id="Path_285" class="st0" d="M83.5,12.8c0.3,0,0.6,0.1,0.8,0.2C84.1,13.1,83.7,13,83.5,12.8"/>
	<path id="Path_286" class="st0" d="M102.8,13.1c0,0-0.1,0-0.1,0c-0.4-0.4-0.9-0.8-1.3-1.2c0,0,0-0.1,0-0.1s0,0,0.1,0
		c0,0,0.1,0,0.1,0C101.9,12.3,102.3,12.6,102.8,13.1C102.7,13,102.7,13.1,102.8,13.1L102.8,13.1z"/>
	<path id="Path_287" class="st0" d="M102.8,13.1c0.3,0,0.4,0.2,0.6,0.4c0,0,0,0.1,0,0.1c0,0,0,0-0.1,0c-0.2-0.1-0.3-0.2-0.4-0.3
		C102.8,13.2,102.8,13.2,102.8,13.1L102.8,13.1z"/>
	<path id="Path_288" class="st0" d="M104.8,12.9c0,0-0.1,0-0.1,0c-0.1-0.2-0.2-0.4-0.3-0.6c0,0,0-0.1-0.1-0.2
		c-0.1-0.6-0.2-1.2-0.3-1.8c0,0,0,0,0,0c0,0,0.1,0,0.1,0c0.1,0.2,0.1,0.3,0.1,0.5c0,0.6,0.2,1.3,0.4,1.9
		C104.7,12.8,104.8,12.8,104.8,12.9L104.8,12.9z"/>
	<path id="Path_289" class="st0" d="M109.8,12.4c-0.2-0.1-0.3-0.3-0.4-0.5c-0.2-0.4-0.4-0.8-0.5-1.2c-0.1-0.2-0.1-0.4-0.1-0.6
		c0,0,0,0,0,0c0,0,0,0,0,0c0,0,0.1,0.1,0.1,0.1c0.2,0.7,0.5,1.4,0.9,2C109.8,12.3,109.8,12.4,109.8,12.4"/>
	<path id="Path_290" class="st0" d="M83.4,11.7c0.1,0,0.1,0,0.2,0c0.2,0.1,0.3,0.1,0.5,0.2c0.1,0,0.1,0,0,0.1c0,0,0,0,0,0
		C83.8,12,83.6,11.9,83.4,11.7C83.3,11.8,83.3,11.8,83.4,11.7C83.3,11.7,83.4,11.7,83.4,11.7"/>
	<path id="Path_291" class="st0" d="M110.1,15.2c0,0.2-0.1,0.3-0.1,0.4c-0.1,0.3-0.3,0.6-0.4,0.9c-0.1,0.2-0.2,0.4-0.4,0.6
		c0,0,0,0,0,0c0,0,0,0,0,0c0,0,0,0,0-0.1c0.3-0.4,0.4-1,0.7-1.4C109.9,15.4,109.9,15.3,110.1,15.2L110.1,15.2z"/>
	<path id="Path_292" class="st0" d="M108.8,17.5C108.8,17.5,108.8,17.5,108.8,17.5c0.1,0,0.1,0,0.1,0c-0.1,0.2-0.2,0.4-0.4,0.5
		c0,0,0,0,0,0c0,0,0,0,0,0C108.5,17.8,108.7,17.6,108.8,17.5"/>
	<path id="Path_293" class="st0" d="M95.5,14.8c-0.3-0.2-0.5-0.4-0.7-0.6c-0.3-0.3-0.4-0.6-0.6-0.9c-0.1-0.2-0.2-0.4-0.4-0.6
		c-0.2-0.2-0.2-0.5-0.3-0.7c0.3,0.3,0.5,0.7,0.7,1.1c0.2,0.5,0.5,1,0.9,1.4C95.3,14.4,95.4,14.6,95.5,14.8L95.5,14.8z"/>
	<path id="Path_294" class="st0" d="M43.9,61.7c-0.9,0.1-1.7-0.1-2.5-0.6v-2h0.1c0.1,1.3,0.6,2.4,2.3,2.4c1.6,0,1.8-1.7,0.6-2.6
		l-1.7-1.1c-1-0.6-1.9-1.6-1.1-2.8c0.5-0.6,1.2-0.9,1.9-0.8c0.8,0,1.6,0.1,2.4,0.5v1.7h-0.1c0.1-1.1-0.8-2-1.9-2.1
		c-0.1,0-0.2,0-0.3,0c-1.1,0-2,1.4-0.4,2.4l1.7,1.1c1.4,0.9,1.6,2,1.1,2.9C45.9,60.9,45.5,61.7,43.9,61.7"/>
	<path id="Path_295" class="st0" d="M54.1,61.7c-1.4,0.1-2.5-1-2.6-2.4c-0.1-1.4,1-2.5,2.4-2.6s2.5,1,2.6,2.4c0,0,0,0.1,0,0.1
		c0.1,1.3-0.8,2.4-2.1,2.5C54.3,61.7,54.2,61.7,54.1,61.7 M54.1,56.9c-0.8,0-1.3,0.5-1.3,2.3s0.5,2.3,1.3,2.3s1.3-0.5,1.3-2.3
		S54.9,56.9,54.1,56.9"/>
	<path id="Path_296" class="st0" d="M66.6,61.5l-1.2,0.2c-0.2,0.1-0.2-0.2-0.2-0.2v-0.9c-0.3,0.6-0.9,1-1.5,1
		c-0.7,0-1.5-0.3-1.5-1.6v-2.3c0-0.7,0-0.7-0.6-0.8V57l1.5-0.2v3.4c-0.1,0.5,0.3,1,0.8,1.1c0.1,0,0.2,0,0.2,0c0.5,0,0.9-0.3,1.1-0.8
		v-2.6c0-0.6,0-0.7-0.5-0.7V57l1.4-0.2v4c0,0.5,0.1,0.6,0.5,0.6L66.6,61.5z"/>
	<path id="Path_297" class="st0" d="M74.5,60.8c-0.2,0.5-0.7,0.9-1.2,0.9c-0.8,0-1.2-0.3-1.2-1.6V57h-0.5l0-0.1h0.5v-1.5l0.9-0.1
		v1.6h1.2l0,0.1H73v3.1c0,0.8,0.3,1.1,0.8,1.1C74,61.2,74.3,61.1,74.5,60.8L74.5,60.8z"/>
	<path id="Path_298" class="st0" d="M84.2,61.6h-1.7v-0.1c0.4-0.1,0.4-0.3,0.4-0.8v-2.2c0-0.7-0.4-1.2-1.1-1.2
		c-0.5,0.1-0.9,0.4-1.1,0.8v2.5c0,0.6,0.1,0.7,0.4,0.8v0.1h-1.7v-0.1c0.4-0.1,0.4-0.3,0.4-0.8V55c0-0.4-0.1-0.5-0.5-0.6v-0.1
		l1.4-0.3v3.9c0.3-0.7,0.9-1.1,1.6-1.2c0.8,0,1.4,0.4,1.4,1.7v2.2c0,0.6,0.1,0.7,0.4,0.8L84.2,61.6z"/>
	<path id="Path_299" class="st0" d="M91,61.6h-1.7v-0.1c0.4-0.1,0.4-0.3,0.4-0.8V55c0-0.4-0.1-0.5-0.5-0.6v-0.1l1.4-0.3v6.7
		c0,0.6,0.1,0.7,0.4,0.8V61.6z"/>
	<path id="Path_300" class="st0" d="M100.5,61l0.1,0.1c-0.1,0.4-0.5,0.7-0.9,0.7c-0.5,0-0.9-0.4-0.9-0.9c0,0,0,0,0,0
		c-0.3,0.6-0.8,0.9-1.5,0.9c0,0-1.2,0-1.2-1.1c0-1,0.9-1.3,2.6-1.7v-0.6c0-1.1-0.5-1.7-1.4-1.3c-0.4,0.2-0.5,0.4-0.4,0.4
		c0.1,0,0.2,0.1,0.3,0.2c0.2,0.2,0.1,0.5-0.1,0.7c-0.2,0.2-0.5,0.1-0.6-0.1c0,0,0,0,0,0c-0.1-0.1-0.1-0.3-0.1-0.5
		c0.2-0.3,0.5-0.6,0.8-0.8c0.3-0.1,0.6-0.2,0.9-0.2c1.1,0,1.4,0.8,1.4,2.1v1.8c0,0,0,0.6,0.5,0.6C100.4,61.2,100.5,61.1,100.5,61
		 M97.1,60.4c0,0.4,0.3,0.8,0.8,0.8c0,0,0,0,0.1,0c0.4,0,0.8-0.3,0.9-0.6v-1.5C97.6,59.4,97.1,59.8,97.1,60.4"/>
	<path id="Path_301" class="st0" d="M107.2,61.6h-1.7v-0.1c0.4-0.1,0.4-0.3,0.4-0.8V55c0-0.4-0.1-0.5-0.5-0.6v-0.1l1.4-0.3v6.7
		c0,0.6,0.1,0.7,0.4,0.8V61.6z M110.5,61.6h-0.9c-0.7,0-0.9-0.2-1.7-1.2c-0.2-0.2-0.8-1-0.8-1l1-1c0,0,1.5-1.4,0.2-1.4v-0.1h2.3V57
		c-0.5,0-1.1,0.1-2.7,1.9c0.5,0.8,1.1,1.5,1.8,2.1c0.2,0.3,0.5,0.4,0.9,0.4L110.5,61.6z"/>
	<path id="Path_302" class="st0" d="M119.6,60.4c-0.3,0.8-1,1.4-1.9,1.3c-1.4-0.2-2.3-1.4-2.2-2.7c0.1-1.2,1.1-2.1,2.2-2.2
		c1.2,0,2,0.8,2,2.4h-3.3c0,1.4,0.7,1.9,1.5,2c0.6,0.1,1.2-0.3,1.5-0.8L119.6,60.4z M118.9,59c0-1.5-0.7-2.1-1.2-2.1
		c-0.6,0-1.2,0.8-1.2,2.1H118.9z"/>
	<path id="Path_303" class="st0" d="M125.4,62.9c0.7-0.5,0.6-1.1,0.5-1.1c-0.1,0-0.3-0.1-0.4-0.2c-0.2-0.2-0.2-0.6,0-0.8
		c0.2-0.2,0.6-0.2,0.9,0c0.4,0.4,0.2,1.1-0.1,1.5C126.1,62.5,125.8,62.8,125.4,62.9L125.4,62.9z"/>
	<path id="Path_304" class="st0" d="M145.2,54.4v1.8H145c0-1.7-1.8-1.7-1.9-1.7h-0.6v6.1c0,0.7,0.3,0.9,0.8,0.9v0.1h-2.5v-0.1
		c0.4,0,0.7-0.2,0.7-0.9v-6.1h-0.6c-0.9-0.1-1.8,0.6-1.9,1.5c0,0.1,0,0.1,0,0.2h-0.1v-1.8L145.2,54.4z"/>
	<path id="Path_305" class="st0" d="M157.3,61.5v0.1h-2.7v-0.1c0.7-0.1,0.2-0.9,0-1.2l-1.2-1.9l-0.6,0.8c-0.6,1.2-1.4,2.2,0,2.2v0.1
		h-2.7v-0.1c0.5,0,0.9,0,2.5-2.3l0.6-0.9c-0.8-1.1-1.9-2.9-1.9-2.9c-0.6-0.9-0.9-0.9-1.3-0.9v-0.1h2.8v0.1c-0.4,0-0.7,0.3-0.1,1.2
		l1.1,1.7l0.5-0.8c0.6-1,1.2-2.1-0.1-2.1v-0.1h2.9v0.1c-0.6,0-1.1,0-2.6,2.2l-0.5,0.8c0.5,0.7,2,3,2,3
		C156.6,61.5,156.8,61.5,157.3,61.5"/>
	<path id="Path_306" class="st0" d="M50.7,76.1v0.1c-0.4,0-0.7,0.1-0.7,0.7v4.6c0,0.6,0.2,0.8,0.6,0.8v0.1h-2.1v-0.1
		c0.4,0,0.6-0.2,0.6-0.8v-4.6c0-0.6-0.2-0.7-0.6-0.7v-0.1L50.7,76.1z M54.6,82.4h-1c-1,0-1.2-0.3-2.1-1.6c-0.5-0.7-1-1.4-1-1.4
		l1.1-1.4c0.5-0.6,1.6-1.8,0.2-1.8v-0.1h2.5v0.1c-0.7,0-1.2,0.2-3.1,2.7c1.1,1.4,2.2,2.9,2.2,2.9c0.3,0.3,0.7,0.5,1.2,0.5L54.6,82.4
		z"/>
	<path id="Path_307" class="st0" d="M60.6,82.4h-1.5v-0.1c0.3-0.1,0.4-0.3,0.4-0.7v-2.5c0-0.3-0.1-0.4-0.5-0.5v-0.1l1.2-0.3v3.4
		c0,0.5,0,0.6,0.4,0.7L60.6,82.4z M59.3,76.9c0-0.2,0.2-0.5,0.4-0.5c0,0,0,0,0,0c0.3,0,0.5,0.2,0.5,0.5c0,0,0,0,0,0
		c0,0.3-0.2,0.5-0.5,0.5C59.5,77.4,59.3,77.2,59.3,76.9C59.3,77,59.3,77,59.3,76.9"/>
	<path id="Path_308" class="st0" d="M67.7,81.7c-0.2,0.5-0.6,0.8-1.1,0.8c-0.7,0-1.1-0.3-1.1-1.4v-2.8h-0.5l0-0.1h0.5V77l0.8-0.1
		v1.4h1.1l0,0.1h-1.1v2.7c0,0.7,0.3,1,0.7,1C67.3,82.1,67.5,81.9,67.7,81.7L67.7,81.7z"/>
	<path id="Path_309" class="st0" d="M75.8,81.3c-0.2,0.8-0.9,1.3-1.7,1.2c-1.1,0-2-1-2-2.1c0,0,0,0,0-0.1c0-1.2,0.9-2.2,2.1-2.2
		c0,0,0.1,0,0.1,0c0.9,0,1.2,0.4,1.2,0.6c0.1,0.1,0.1,0.3,0,0.4c-0.1,0.2-0.4,0.3-0.6,0.2c-0.2-0.1-0.3-0.4-0.2-0.6c0,0,0,0,0,0
		c0.1-0.1,0.1-0.2,0.3-0.2c0.1,0-0.2-0.3-0.8-0.3c-0.4,0-1.4,0.3-1.4,2c0,1.2,0.7,1.7,1.3,1.8C74.9,82.1,75.4,81.8,75.8,81.3
		L75.8,81.3z"/>
	<path id="Path_310" class="st0" d="M84.5,82.4H83v-0.1c0.3-0.1,0.4-0.3,0.4-0.7v-1.9c0-0.7-0.3-1-0.9-1c-0.4,0.1-0.8,0.3-0.9,0.7
		v2.2c0,0.5,0,0.6,0.4,0.7v0.1h-1.5v-0.1c0.3-0.1,0.4-0.3,0.4-0.7v-5c0-0.3-0.1-0.4-0.5-0.5V76l1.3-0.3v3.4c0.2-0.6,0.8-1,1.4-1
		c0.7,0,1.3,0.4,1.3,1.5v2c0,0.5,0.1,0.7,0.4,0.7L84.5,82.4z"/>
	<path id="Path_311" class="st0" d="M92.6,81.4c-0.2,0.7-0.9,1.2-1.7,1.1c-1.2-0.1-2.1-1.2-1.9-2.4c0.1-1,0.9-1.8,2-1.9
		c1.1,0,1.8,0.7,1.8,2.1h-2.9c0,1.2,0.6,1.7,1.3,1.8c0.6,0.1,1.1-0.2,1.4-0.7L92.6,81.4z M92,80.1c0-1.3-0.6-1.9-1-1.9
		c-0.5,0-1.1,0.7-1.1,1.9H92z"/>
	<path id="Path_312" class="st0" d="M101.4,82.4h-1.5v-0.1c0.3-0.1,0.4-0.3,0.4-0.7v-1.9c0.1-0.5-0.3-0.9-0.8-1c-0.1,0-0.1,0-0.2,0
		c-0.4,0-0.8,0.4-0.9,0.8v2.2c0,0.5,0,0.6,0.4,0.7v0.1h-1.5v-0.1c0.3-0.1,0.4-0.3,0.4-0.7v-2.5c0-0.3-0.1-0.4-0.5-0.5v-0.1l1.3-0.3
		v1c0.2-0.6,0.8-0.9,1.4-1c0.7,0,1.3,0.4,1.3,1.4v2c0,0.5,0.1,0.7,0.4,0.7L101.4,82.4z"/>
	<path id="Path_313" class="st0" d="M118.5,81.5c0,0.5-0.4,1-0.9,1c-0.4,0-0.9-0.1-1.1-0.5l-0.5-0.8c-0.3,1-2.1,1.8-3.1,0.6
		c-1-1.2,0.2-2.3,0.9-2.7l0.5-0.3l-0.5-0.7c-0.9-1.2-0.4-2.3,0.6-2.5c0.5-0.1,1,0,1.3,0.4c0.4,0.4,0.7,1.6-0.7,2.5l1.2,1.8
		c0.3-0.9,0.8-1,1.1-1.1c0.2,0,0.4,0,0.6,0.1c0.2,0.2,0.2,0.4,0.1,0.6c0,0,0,0,0,0c-0.2,0.2-0.5,0.2-0.7,0.1
		c-0.1-0.1-0.2-0.2-0.2-0.3c0-0.2-0.6-0.1-0.8,0.7l0.7,1c0.2,0.2,0.4,0.4,0.7,0.4c0.3,0,0.6-0.1,0.6-0.4L118.5,81.5z M115.9,81.2
		l-1.5-2.2l-0.5,0.3c-0.7,0.5-0.9,1.4-0.4,2.1c0,0.1,0.1,0.1,0.1,0.2c0.5,0.6,1.4,0.6,1.9,0.1C115.7,81.5,115.8,81.4,115.9,81.2
		 M114.4,77.5l0.6,0.9c1.2-0.8,1.1-1.8,0.6-2.3c-0.3-0.3-0.7-0.4-1-0.3C114,76.1,113.9,76.9,114.4,77.5"/>
	<path id="Path_314" class="st0" d="M131.4,82.4h-1.8v-0.1c0.4,0,0.5-0.4,0.5-1v-4.2c0-0.6-0.1-1-0.5-1v-0.1h1.8
		c1.3,0,2.3,0.1,2.3,1.5c0,0.8-0.6,1.5-1.5,1.6c0,0,0,0,0,0c0.6,0,1.9,0.1,1.9,1.6C134.1,82.4,133,82.4,131.4,82.4 M131,76.2v3h0.5
		c0.6,0,1.2-0.2,1.2-1.5c0-1.3-0.8-1.4-1.3-1.4H131z M131.6,79.3H131v3h0.4c0.9,0,1.7,0,1.7-1.5C133.1,79.3,132.2,79.3,131.6,79.3"
		/>
	<path id="Path_315" class="st0" d="M142.8,81.8l0.1,0c-0.1,0.4-0.4,0.6-0.8,0.6c-0.4,0-0.8-0.3-0.8-0.8c0,0,0,0,0,0
		c-0.2,0.5-0.7,0.8-1.3,0.8c0,0-1,0-1-0.9c0-0.9,0.8-1.1,2.3-1.5v-0.5c0-0.9-0.5-1.5-1.2-1.1c-0.4,0.2-0.4,0.3-0.4,0.4
		c0.1,0,0.2,0.1,0.3,0.2c0.1,0.2,0.1,0.5-0.1,0.6c-0.2,0.1-0.4,0.1-0.6-0.1c0,0,0,0,0,0c-0.1-0.1-0.1-0.3,0-0.4
		c0.2-0.3,0.4-0.5,0.7-0.7c0.3-0.1,0.5-0.2,0.8-0.2c1,0,1.3,0.7,1.3,1.8v1.5c0,0,0,0.6,0.4,0.6C142.7,82.1,142.8,82,142.8,81.8
		 M139.8,81.4c0,0.4,0.3,0.7,0.7,0.7c0,0,0,0,0.1,0c0.4,0,0.7-0.2,0.8-0.6v-1.3C140.3,80.4,139.8,80.8,139.8,81.4"/>
	<path id="Path_316" class="st0" d="M150.1,78.4c0.2,0.2,0.2,0.5-0.1,0.7c0,0,0,0,0,0c-0.2,0.2-0.5,0.2-0.7-0.1c0,0,0,0,0,0
		c-0.1-0.1-0.1-0.2-0.1-0.3c0-0.2-0.6,0.1-0.9,0.7v2.3c0,0.5,0,0.6,0.4,0.7v0.1h-1.5v-0.1c0.3-0.1,0.4-0.3,0.4-0.7v-2.5
		c0-0.3-0.1-0.4-0.5-0.5v-0.1l1.3-0.3v1c0.2-0.5,0.7-0.8,1.2-0.9C149.8,78.2,149.9,78.2,150.1,78.4"/>
	<path id="Path_317" class="st0" d="M30.4,34.9c-0.1,0.3-0.3,0.4-0.6,0.4c-0.7,0.1-4.1,0.2-5.4,0.2s-4.4-0.1-5-0.1
		c-0.2,0-0.3-0.1-0.3-0.5h-0.1c-0.1,1-0.3,2-0.6,2.9l0.1,0c0.3-0.8,0.5-1.3,1.4-1.5c0.7-0.1,2.3-0.2,3.6-0.2c0.1,1.8,0.1,4,0.1,6.2
		c0,1.9,0,3.4-0.1,5.1c-0.1,1-0.6,1.4-1.6,1.6v0.1c1-0.1,1.8-0.1,2.6-0.1c0.8,0,1.6,0,2.6,0.1v-0.1c-1-0.2-1.5-0.6-1.6-1.6
		c-0.1-1.8-0.1-3.1-0.1-5.2c0-2.3,0-4.4,0.1-6.2c1.3,0,2.9,0.1,3.6,0.2c0.9,0.1,1,0.6,0.9,1.4h0.1c0.1-0.9,0.3-1.9,0.6-2.8
		L30.4,34.9z"/>
	<path id="Path_318" class="st0" d="M51,35.5v-0.1c-1,0.1-1.8,0.1-2.6,0.1c-0.8,0-1.6,0-2.6-0.1v0.1c1,0.2,1.5,0.6,1.6,1.6
		c0.1,1.5,0.1,2.7,0.1,4.3c-1.2,0.1-2.3,0.1-3.7,0.1c-1.5,0-2.8,0-4.1-0.1c0-1.6,0-2.7,0.1-4.3c0.1-1,0.6-1.4,1.6-1.6v-0.1
		c-1,0.1-1.8,0.1-2.6,0.1c-0.8,0-1.6,0-2.6-0.1v0.1c1,0.2,1.5,0.6,1.6,1.6c0.1,1.7,0.1,3.2,0.1,5.1s0,3.4-0.1,5.1
		c-0.1,1-0.6,1.4-1.6,1.6v0.1c1-0.1,1.8-0.1,2.6-0.1c0.8,0,1.6,0,2.6,0.1V49c-1-0.2-1.5-0.6-1.6-1.6c-0.1-1.8-0.1-3-0.1-5
		c1.2-0.1,2.3-0.1,3.7-0.1c1.4,0,2.8,0,4.1,0.1c0,1.9,0,3.3-0.1,5c-0.1,1-0.6,1.4-1.6,1.6v0.1c1-0.1,1.8-0.1,2.6-0.1
		c0.8,0,1.6,0,2.6,0.1V49c-1-0.2-1.5-0.6-1.6-1.6c-0.1-1.8-0.1-3.1-0.1-5.1s0-3.3,0.1-5.1C49.5,36.1,50,35.7,51,35.5"/>
	<path id="Path_319" class="st0" d="M65.9,46.3l-0.1,0c-0.4,1.7-1,2-2.6,2c-1.5,0-2.4-0.1-2.5-1.4c-0.1-1-0.1-2.5-0.1-4.6v-0.1
		c0.7,0,1.4,0,2.2,0c1.3,0,1.5,0.4,1.8,1.3l0.1,0c-0.1-0.5-0.1-1.1-0.1-1.6c0-0.6,0-1.1,0.1-1.7l-0.1,0c-0.2,0.8-0.5,1.3-1.8,1.4
		c-1,0-1.6,0-2.2,0c0-1.6,0-2.8,0.1-5.3c0.7-0.1,1.4-0.1,2.1-0.1c1.8,0,2.6,0.3,2.9,1.9h0.1c-0.1-0.9-0.1-1.7,0-2.6
		c-1.1,0.1-2.7,0.1-4.1,0.1c-1.8,0-3.4,0-4.6-0.1v0.1c1,0.2,1.5,0.6,1.6,1.6c0.1,1.7,0.1,3.2,0.1,5.1c0,2.1,0,3.4-0.1,5.1
		c-0.1,1.1-0.6,1.4-1.6,1.6v0.1c1.1-0.1,3.4-0.1,4.6-0.1c1.3,0,2.4,0,4.1,0.1C65.8,48.2,65.8,47.2,65.9,46.3"/>
	<path id="Path_320" class="st0" d="M95.8,35.5v-0.1c-1,0.1-1.8,0.1-2.6,0.1c-0.8,0-1.6,0-2.6-0.1v0.1c1,0.2,1.5,0.6,1.6,1.6
		c0.1,1.5,0.1,2.7,0.1,4.3c-1.2,0.1-2.3,0.1-3.7,0.1c-1.5,0-2.8,0-4.1-0.1c0-1.6,0-2.7,0.1-4.3c0.1-1,0.6-1.4,1.6-1.6v-0.1
		c-1,0.1-1.8,0.1-2.6,0.1c-0.8,0-1.6,0-2.6-0.1v0.1c1,0.2,1.5,0.6,1.6,1.6c0.1,1.7,0.1,3.2,0.1,5.1s0,3.4-0.1,5.1
		c-0.1,1-0.6,1.4-1.6,1.6v0.1c1-0.1,1.8-0.1,2.6-0.1c0.8,0,1.6,0,2.6,0.1V49c-1-0.2-1.5-0.6-1.6-1.6c-0.1-1.8-0.1-3-0.1-5
		c1.2-0.1,2.3-0.1,3.7-0.1c1.4,0,2.8,0,4.1,0.1c0,1.9,0,3.3-0.1,5c-0.1,1-0.6,1.4-1.6,1.6v0.1c1-0.1,1.8-0.1,2.6-0.1
		c0.8,0,1.6,0,2.6,0.1V49c-1-0.2-1.5-0.6-1.6-1.6c-0.1-1.8-0.1-3.1-0.1-5.1s0-3.3,0.1-5.1C94.3,36.1,94.8,35.7,95.8,35.5"/>
	<path id="Path_321" class="st0" d="M110.7,46.3l-0.1,0c-0.4,1.7-1,2-2.6,2c-1.5,0-2.4-0.1-2.5-1.4c-0.1-1-0.1-2.5-0.1-4.6v-0.1
		c0.7,0,1.4,0,2.2,0c1.3,0,1.5,0.4,1.8,1.3l0.1,0c-0.1-0.5-0.1-1.1-0.1-1.6c0-0.6,0-1.1,0.1-1.7l-0.1,0c-0.2,0.8-0.5,1.3-1.8,1.4
		c-1,0-1.6,0-2.2,0c0-1.6,0-2.8,0.1-5.3c0.7-0.1,1.4-0.1,2.1-0.1c1.8,0,2.6,0.3,2.9,1.9h0.1c-0.1-0.9-0.1-1.7,0-2.6
		c-1.1,0.1-2.7,0.1-4.1,0.1c-1.8,0-3.4,0-4.6-0.1v0.1c1,0.2,1.5,0.6,1.6,1.6c0.1,1.7,0.1,3.2,0.1,5.1c0,2.1,0,3.4-0.1,5.1
		c-0.1,1.1-0.6,1.4-1.6,1.6v0.1c1.1-0.1,3.4-0.1,4.6-0.1c1.3,0,2.4,0,4.1,0.1C110.6,48.2,110.6,47.2,110.7,46.3"/>
	<path id="Path_322" class="st0" d="M129.3,35.5c-0.6,0-1.2,0-2.2-0.1v0.1c0.9,0.2,1.4,0.5,1.5,1.6c0.1,1.6,0.1,2.7,0.1,5.2v3.2
		c-3.3-3.3-6.7-6.7-10-10.2h0c0.1,2,0.1,4.7,0.1,6.6c0,2.5-0.1,3.8-0.2,5.5c-0.1,1.1-0.6,1.4-1.5,1.6v0.1c0.9-0.1,1.5-0.1,2.1-0.1
		s1.2,0,2.2,0.1V49c-0.9-0.2-1.4-0.5-1.5-1.6c-0.1-1.7-0.1-2.9-0.1-5.5V39c3.5,3.4,6.9,6.8,10,10.3h0c-0.1-2.2-0.1-4.8-0.1-6.9
		c0-2.5,0.1-3.7,0.2-5.3c0.1-1.1,0.6-1.4,1.5-1.6v-0.1C130.6,35.5,130,35.5,129.3,35.5"/>
	<path id="Path_323" class="st0" d="M146.3,46.3l-0.1,0c-0.4,1.7-1,2-2.6,2c-1.4,0-2.4-0.1-2.5-1.4c-0.1-1-0.1-2.5-0.1-4.6
		c0-2.1,0-3.3,0.1-5.1c0.1-1,0.6-1.4,1.6-1.6v-0.1c-1,0.1-1.8,0.1-2.6,0.1c-0.8,0-1.6,0-2.6-0.1v0.1c1,0.2,1.5,0.6,1.6,1.6
		c0.1,1.7,0.1,3.2,0.1,5.1c0,2.1,0,3.4-0.1,5.1c-0.1,1.1-0.6,1.4-1.6,1.6v0.1c1.1-0.1,3.4-0.1,4.6-0.1c1.3,0,2.4,0,4.1,0.1
		C146.2,48.2,146.2,47.3,146.3,46.3"/>
	<path id="Path_324" class="st0" d="M161.6,46.3l-0.1,0c-0.4,1.7-1,2-2.6,2c-1.5,0-2.4-0.1-2.5-1.4c-0.1-1-0.1-2.5-0.1-4.6v-0.1
		c0.7,0,1.4,0,2.2,0c1.3,0,1.5,0.4,1.8,1.3l0.1,0c-0.1-0.5-0.1-1.1-0.1-1.6c0-0.6,0-1.1,0.1-1.7l-0.1,0c-0.2,0.8-0.5,1.3-1.8,1.4
		c-1,0-1.6,0-2.2,0c0-1.6,0-2.8,0.1-5.3c0.7-0.1,1.4-0.1,2.1-0.1c1.8,0,2.6,0.3,2.9,1.9h0.1c-0.1-0.9-0.1-1.7,0-2.6
		c-1.1,0.1-2.7,0.1-4.1,0.1c-1.8,0-3.4,0-4.6-0.1v0.1c1,0.2,1.5,0.6,1.6,1.6c0.1,1.7,0.1,3.2,0.1,5.1c0,2.1,0,3.4-0.1,5.1
		c-0.1,1.1-0.6,1.4-1.6,1.6v0.1c1.1-0.1,3.4-0.1,4.6-0.1c1.3,0,2.4,0,4.1,0.1C161.5,48.2,161.5,47.2,161.6,46.3"/>
	<path id="Path_325" class="st0" d="M178.6,35.5c-0.7,0-1.4,0-2.2-0.1v0.1c1.2,0.2,1.7,0.5,1,1.7c-0.8,1.3-1.8,3-2.9,4.8l-2.9-4.8
		c-0.6-1-0.2-1.5,1.2-1.7v-0.1c-1.1,0.1-1.9,0.1-2.7,0.1c-0.8,0-1.7,0-2.5-0.1v0.1c0.8,0.2,1.3,0.6,2,1.7c1,1.6,2.3,3.7,3.7,5.9
		c0,1.5,0,2.9-0.1,4.4c-0.1,1-0.6,1.4-1.6,1.6v0.1c1-0.1,1.7-0.1,2.6-0.1c0.8,0,1.6,0,2.6,0.1v-0.1c-1-0.2-1.5-0.6-1.6-1.6
		c-0.1-1.6-0.1-3.1-0.1-4.8c1.3-2.1,2.6-4.1,3.5-5.5c0.4-0.8,1.2-1.4,2.1-1.7v-0.1C179.8,35.5,179.2,35.5,178.6,35.5"/>
</g>
</svg>
